<?xml version="1.0" encoding="UTF-8" standalone="no"?>
<svg
   viewBox="0 0 519.75012 250"
   font-family="monospace"
   font-size="12px"
   version="1.1"
   id="svg15"
   sodipodi:docname="rostra-event-model.svg"
   width="519.75012"
   height="250"
   inkscape:export-filename="rostra-event-model.png"
   inkscape:export-xdpi="94.56852"
   inkscape:export-ydpi="94.56852"
   inkscape:version="1.4.2 (ebf0e940d0, 2025-05-08)"
   xmlns:inkscape="http://www.inkscape.org/namespaces/inkscape"
   xmlns:sodipodi="http://sodipodi.sourceforge.net/DTD/sodipodi-0.dtd"
   xmlns="http://www.w3.org/2000/svg"
   xmlns:svg="http://www.w3.org/2000/svg">
  <sodipodi:namedview
     id="namedview15"
     pagecolor="#ffffff"
     bordercolor="#000000"
     borderopacity="0"
     inkscape:showpageshadow="2"
     inkscape:pageopacity="0.0"
     inkscape:pagecheckerboard="true"
     inkscape:deskcolor="#d1d1d1"
     inkscape:zoom="3.1396552"
     inkscape:cx="262.1307"
     inkscape:cy="57.649643"
     inkscape:window-width="1920"
     inkscape:window-height="1043"
     inkscape:window-x="0"
     inkscape:window-y="0"
     inkscape:window-maximized="1"
     inkscape:current-layer="svg15" />
  <defs
     id="defs2">
    <marker
       orient="auto-start-reverse"
       refY="0"
       refX="0"
       id="ThreeDots"
       inkscape:stockid="Ellipsis"
       style="overflow:visible"
       markerWidth="1"
       markerHeight="1"
       viewBox="0 0 1 1"
       inkscape:isstock="true"
       inkscape:collect="always"
       preserveAspectRatio="xMidYMid">
      <g
         transform="scale(0.5)"
         id="g33">
        <circle
           cx="4"
           cy="0"
           r="1"
           style="fill:context-stroke;stroke:context-stroke"
           id="circle31" />
        <circle
           cx="8"
           cy="0"
           r="1"
           style="fill:context-stroke;stroke:context-stroke"
           id="circle32" />
        <circle
           cx="12"
           cy="0"
           r="1"
           style="fill:context-stroke;stroke:context-stroke"
           id="circle33" />
      </g>
    </marker>
    <marker
       id="arrow"
       markerWidth="8"
       markerHeight="6"
       refX="8"
       refY="3"
       orient="auto"
       viewBox="0 0 8 6"
       preserveAspectRatio="xMidYMid"
       markerUnits="userSpaceOnUse">
      <path
         d="M 0,0 8,3 0,6"
         fill="#555555"
         id="path1" />
    </marker>
    <marker
       id="arrow-c"
       markerWidth="8"
       markerHeight="6"
       refX="8"
       refY="3"
       orient="auto">
      <path
         d="M 0,0 8,3 0,6"
         fill="#e07020"
         id="path2" />
    </marker>
    <style
       id="style2">
      .event { fill: #1a1a2e; stroke: #4a9eff; stroke-width: 2; }
      .content { fill: #2e1a0a; stroke: #e07020; stroke-width: 2; }
      .seq { stroke: #4a9eff; stroke-width: 1.5; fill: none; marker-end: url(#arrow); }
      .skip { stroke: #4a9eff; stroke-width: 1.5; fill: none; stroke-dasharray: 6,4; marker-end: url(#arrow); }
      .cref { stroke: #e07020; stroke-width: 1.5; fill: none; marker-end: url(#arrow-c); }
      .lbl { fill: #ccc; font-size: 11px; text-anchor: middle; }
      .head { fill: #4a9eff; font-size: 13px; font-weight: bold; text-anchor: middle; }
    </style>
  </defs>
  <rect
     width="519.75012"
     height="250"
     fill="#0d0d1a"
     rx="0"
     id="rect2"
     x="0"
     y="0"
     style="stroke:none;stroke-width:0.947;stroke-dasharray:none;stroke-opacity:1"
     inkscape:export-filename="rect2.png"
     inkscape:export-xdpi="94.56852"
     inkscape:export-ydpi="94.56852" />
  <!-- E5  cx=110 -->
  <rect
     x="36"
     y="72"
     width="40"
     height="40"
     class="event"
     id="rect3" />
  <text
     x="56"
     y="97"
     class="lbl"
     id="text3">E5</text>
  <polygon
     points="85,165 110,190 135,165 110,140 "
     class="content"
     id="polygon3"
     transform="translate(-54,12)" />
  <text
     x="56"
     y="181"
     class="lbl"
     id="text4">C5</text>
  <line
     x1="56"
     y1="112"
     x2="56"
     y2="150"
     class="cref"
     id="line4" />
  <line
     x1="36"
     y1="92"
     x2="-16"
     y2="92"
     class="seq"
     marker-end="none"
     id="line5" />
  <!-- skip: outside -->
  <path
     d="m 45.85395,71.88997 q 0,-24.785304 -109.50623,-24.785304 -13.688279,0 -13.688279,14.871182"
     class="skip"
     marker-end="none"
     id="path5"
     style="marker-end:url(#ThreeDots)" />
  <!-- E6  cx=194 -->
  <rect
     x="120"
     y="72"
     width="40"
     height="40"
     class="event"
     id="rect5" />
  <text
     x="140"
     y="97"
     class="lbl"
     id="text5">E6</text>
  <polygon
     points="169,165 194,190 219,165 194,140 "
     class="content"
     id="polygon5"
     transform="translate(-54,12)" />
  <text
     x="140"
     y="181"
     class="lbl"
     id="text6">C6</text>
  <line
     x1="140"
     y1="112"
     x2="140"
     y2="150"
     class="cref"
     id="line6" />
  <path
     id="line7"
     class="seq"
     style="fill:none;stroke:#4a9eff;stroke-width:1.59019;marker-end:url(#arrow)"
     d="M 120,92 H 76"
     sodipodi:nodetypes="cc" />
  <!-- skip: E6 → outside -->
  <path
     d="M 130,72 Q 130,37 -71.562786,37 -83.8532,37 -83.8532,54"
     class="skip"
     marker-end="none"
     id="path7" />
  <!-- E7  cx=278 -->
  <rect
     x="204"
     y="72"
     width="40"
     height="40"
     class="event"
     id="rect7" />
  <text
     x="224"
     y="97"
     class="lbl"
     id="text7">E7</text>
  <polygon
     points="253,165 278,190 303,165 278,140 "
     class="content"
     id="polygon7"
     transform="translate(-54,12)" />
  <text
     x="224"
     y="181"
     class="lbl"
     id="text8">C7</text>
  <line
     x1="224"
     y1="112"
     x2="224"
     y2="150"
     class="cref"
     id="line8" />
  <line
     x1="204"
     y1="92"
     x2="160.35585"
     y2="92"
     class="seq"
     id="line9" />
  <!-- skip: E7 → E5 -->
  <path
     d="M 214,72 Q 214,47 66,47 56,47 56,72"
     class="skip"
     id="path9" />
  <!-- E8  cx=362 -->
  <rect
     x="288"
     y="72"
     width="40"
     height="40"
     class="event"
     id="rect9" />
  <text
     x="308"
     y="97"
     class="lbl"
     id="text9">E8</text>
  <polygon
     points="337,165 362,190 387,165 362,140 "
     class="content"
     id="polygon9"
     transform="translate(-54,12)" />
  <text
     x="308"
     y="181"
     class="lbl"
     id="text10">C8</text>
  <line
     x1="308"
     y1="112"
     x2="308"
     y2="150"
     class="cref"
     id="line10" />
  <line
     x1="288"
     y1="92"
     x2="244.99286"
     y2="92"
     class="seq"
     id="line11" />
  <!-- skip: outside -->
  <path
     d="M 298,72 C 298,45.333333 187.85958,26.266886 -54,26.266886 -61.284928,26.266886 -75.716764,37 -75.716764,47"
     class="skip"
     marker-end="none"
     id="path11"
     sodipodi:nodetypes="csc" />
  <!-- E9  cx=446 -->
  <rect
     x="372"
     y="72"
     width="40"
     height="40"
     class="event"
     id="rect11" />
  <text
     x="392"
     y="97"
     class="lbl"
     id="text11">E9</text>
  <polygon
     points="421,165 446,190 471,165 446,140 "
     class="content"
     id="polygon11"
     transform="translate(-54,12)" />
  <text
     x="392"
     y="181"
     class="lbl"
     id="text12">C9</text>
  <line
     x1="392"
     y1="112"
     x2="392"
     y2="150"
     class="cref"
     id="line12" />
  <line
     x1="372"
     y1="92"
     x2="328"
     y2="92"
     class="seq"
     id="line13" />
  <!-- skip: E9 → E6 -->
  <path
     d="M 382,72 Q 382,47 150,47 140,47 140,72"
     class="skip"
     id="path13" />
  <!-- E10  cx=530 -->
  <rect
     x="456"
     y="72"
     width="40"
     height="40"
     class="event"
     id="rect13" />
  <text
     x="476"
     y="97"
     class="lbl"
     id="text13">E10</text>
  <polygon
     points="505,165 530,190 555,165 530,140 "
     class="content"
     id="polygon13"
     transform="translate(-54,12)" />
  <text
     x="476"
     y="181"
     class="lbl"
     id="text14">C10</text>
  <line
     x1="476"
     y1="112"
     x2="476"
     y2="150"
     class="cref"
     id="line14" />
  <line
     x1="456"
     y1="92"
     x2="412"
     y2="92"
     class="seq"
     id="line15" />
  <!-- skip: E10 → E7 -->
  <path
     d="M 466,72 Q 466,47 234,47 224,47 224,72"
     class="skip"
     id="path15" />
  <!-- HEAD label -->
  <text
     x="476"
     y="62"
     class="head"
     id="text15">HEAD</text>
</svg>
